<svg xmlns="http://www.w3.org/2000/svg" viewBox="0 0 1024 500">
  <!-- Background -->
  <rect width="1024" height="500" fill="#FFD93D"/>

  <!-- Cropped edge marbles -->
  <circle cx="-15" cy="100" r="40" fill="#4D96FF"/>
  <circle cx="-22" cy="88" r="12" fill="#FFFFFF" opacity="0.4"/>
  <circle cx="-20" cy="450" r="35" fill="#00C9A7"/>
  <circle cx="-27" cy="439" r="10" fill="#FFFFFF" opacity="0.4"/>
  <circle cx="1040" cy="450" r="38" fill="#FF6B6B"/>
  <circle cx="1032" cy="438" r="11" fill="#FFFFFF" opacity="0.4"/>
  <circle cx="1050" cy="100" r="32" fill="#9B59B6"/>
  <circle cx="1043" cy="89" r="9" fill="#FFFFFF" opacity="0.4"/>
  <circle cx="500" cy="-15" r="30" fill="#9B59B6"/>
  <circle cx="493" cy="-24" r="9" fill="#FFFFFF" opacity="0.4"/>
  <circle cx="700" cy="-10" r="24" fill="#FF6B6B"/>
  <circle cx="694" cy="-17" r="7" fill="#FFFFFF" opacity="0.4"/>
  <circle cx="300" cy="515" r="34" fill="#4D96FF"/>
  <circle cx="293" cy="505" r="10" fill="#FFFFFF" opacity="0.4"/>
  <circle cx="600" cy="520" r="28" fill="#00C9A7"/>
  <circle cx="594" cy="511" r="8" fill="#FFFFFF" opacity="0.4"/>

  <!-- Left area -->
  <circle cx="55" cy="70" r="38" fill="#FF6B6B"/>
  <circle cx="47" cy="57" r="11" fill="#FFFFFF" opacity="0.4"/>
  <circle cx="160" cy="50" r="30" fill="#4D96FF"/>
  <circle cx="153" cy="40" r="9" fill="#FFFFFF" opacity="0.4"/>
  <circle cx="100" cy="170" r="34" fill="#00C9A7"/>
  <circle cx="93" cy="159" r="10" fill="#FFFFFF" opacity="0.4"/>
  <circle cx="200" cy="140" r="40" fill="#9B59B6"/>
  <circle cx="191" cy="127" r="12" fill="#FFFFFF" opacity="0.4"/>
  <circle cx="40" cy="270" r="32" fill="#9B59B6"/>
  <circle cx="33" cy="259" r="9" fill="#FFFFFF" opacity="0.4"/>
  <circle cx="130" cy="310" r="44" fill="#FF6B6B"/>
  <circle cx="121" cy="296" r="13" fill="#FFFFFF" opacity="0.4"/>
  <circle cx="220" cy="270" r="26" fill="#4D96FF"/>
  <circle cx="214" cy="261" r="7" fill="#FFFFFF" opacity="0.4"/>
  <circle cx="60" cy="400" r="36" fill="#4D96FF"/>
  <circle cx="53" cy="389" r="10" fill="#FFFFFF" opacity="0.4"/>
  <circle cx="170" cy="430" r="42" fill="#00C9A7"/>
  <circle cx="162" cy="417" r="12" fill="#FFFFFF" opacity="0.4"/>
  <circle cx="250" cy="390" r="28" fill="#FF6B6B"/>
  <circle cx="243" cy="380" r="8" fill="#FFFFFF" opacity="0.4"/>
  <circle cx="30" cy="50" r="22" fill="#00C9A7"/>
  <circle cx="24" cy="42" r="6" fill="#FFFFFF" opacity="0.4"/>
  <circle cx="240" cy="60" r="18" fill="#FF6B6B"/>
  <circle cx="235" cy="53" r="5" fill="#FFFFFF" opacity="0.4"/>
  <circle cx="180" cy="220" r="20" fill="#4D96FF"/>
  <circle cx="175" cy="213" r="6" fill="#FFFFFF" opacity="0.4"/>
  <circle cx="80" cy="340" r="16" fill="#00C9A7"/>
  <circle cx="76" cy="334" r="5" fill="#FFFFFF" opacity="0.4"/>
  <circle cx="260" cy="470" r="24" fill="#9B59B6"/>
  <circle cx="254" cy="462" r="7" fill="#FFFFFF" opacity="0.4"/>
  <circle cx="20" cy="190" r="14" fill="#FF6B6B"/>
  <circle cx="16" cy="184" r="4" fill="#FFFFFF" opacity="0.4"/>
  <circle cx="270" cy="170" r="18" fill="#00C9A7"/>
  <circle cx="265" cy="163" r="5" fill="#FFFFFF" opacity="0.4"/>

  <!-- Right area -->
  <circle cx="960" cy="70" r="36" fill="#00C9A7"/>
  <circle cx="953" cy="58" r="10" fill="#FFFFFF" opacity="0.4"/>
  <circle cx="850" cy="50" r="32" fill="#9B59B6"/>
  <circle cx="843" cy="39" r="9" fill="#FFFFFF" opacity="0.4"/>
  <circle cx="920" cy="170" r="38" fill="#FF6B6B"/>
  <circle cx="912" cy="157" r="11" fill="#FFFFFF" opacity="0.4"/>
  <circle cx="810" cy="130" r="42" fill="#4D96FF"/>
  <circle cx="802" cy="118" r="12" fill="#FFFFFF" opacity="0.4"/>
  <circle cx="980" cy="280" r="34" fill="#4D96FF"/>
  <circle cx="973" cy="268" r="10" fill="#FFFFFF" opacity="0.4"/>
  <circle cx="880" cy="300" r="40" fill="#9B59B6"/>
  <circle cx="872" cy="288" r="12" fill="#FFFFFF" opacity="0.4"/>
  <circle cx="790" cy="280" r="24" fill="#00C9A7"/>
  <circle cx="784" cy="272" r="7" fill="#FFFFFF" opacity="0.4"/>
  <circle cx="950" cy="400" r="38" fill="#00C9A7"/>
  <circle cx="943" cy="389" r="11" fill="#FFFFFF" opacity="0.4"/>
  <circle cx="850" cy="430" r="36" fill="#FF6B6B"/>
  <circle cx="842" cy="418" r="10" fill="#FFFFFF" opacity="0.4"/>
  <circle cx="770" cy="400" r="30" fill="#4D96FF"/>
  <circle cx="763" cy="390" r="9" fill="#FFFFFF" opacity="0.4"/>
  <circle cx="990" cy="50" r="20" fill="#FF6B6B"/>
  <circle cx="985" cy="43" r="6" fill="#FFFFFF" opacity="0.4"/>
  <circle cx="770" cy="60" r="18" fill="#00C9A7"/>
  <circle cx="765" cy="53" r="5" fill="#FFFFFF" opacity="0.4"/>
  <circle cx="830" cy="220" r="22" fill="#FF6B6B"/>
  <circle cx="825" cy="213" r="6" fill="#FFFFFF" opacity="0.4"/>
  <circle cx="940" cy="340" r="16" fill="#9B59B6"/>
  <circle cx="936" cy="334" r="5" fill="#FFFFFF" opacity="0.4"/>
  <circle cx="760" cy="470" r="26" fill="#9B59B6"/>
  <circle cx="754" cy="462" r="7" fill="#FFFFFF" opacity="0.4"/>
  <circle cx="1000" cy="190" r="14" fill="#4D96FF"/>
  <circle cx="996" cy="184" r="4" fill="#FFFFFF" opacity="0.4"/>
  <circle cx="750" cy="170" r="16" fill="#FF6B6B"/>
  <circle cx="746" cy="164" r="5" fill="#FFFFFF" opacity="0.4"/>

  <!-- Mortar body: rectangular outer -->
  <rect x="310" y="170" width="404" height="235" rx="10" fill="#9CA3AF"/>

  <!-- Hollow: curved inner, dark interior -->
  <path d="M331 170 Q331 377 512 377 Q693 377 693 170 Z"
        fill="#4C1D95"/>

  <!-- Small marbles in the bowl -->
  <circle cx="440" cy="290" r="21" fill="#9B59B6"/>
  <circle cx="434" cy="282" r="6" fill="#FFFFFF" opacity="0.4"/>
  <circle cx="520" cy="300" r="18" fill="#00C9A7"/>
  <circle cx="515" cy="293" r="5" fill="#FFFFFF" opacity="0.4"/>
  <circle cx="580" cy="280" r="16" fill="#FF6B6B"/>
  <circle cx="576" cy="274" r="5" fill="#FFFFFF" opacity="0.4"/>
  <circle cx="480" cy="320" r="14" fill="#4D96FF"/>
  <circle cx="476" cy="314" r="4" fill="#FFFFFF" opacity="0.4"/>
  <circle cx="550" cy="330" r="12" fill="#9B59B6"/>
  <circle cx="547" cy="325" r="3" fill="#FFFFFF" opacity="0.4"/>

  <!-- Big marbles floating above mortar -->
  <circle cx="420" cy="80" r="50" fill="#FF6B6B"/>
  <circle cx="406" cy="66" r="15" fill="#FFFFFF" opacity="0.5"/>
  <circle cx="560" cy="90" r="46" fill="#4D96FF"/>
  <circle cx="548" cy="77" r="13" fill="#FFFFFF" opacity="0.5"/>
  <circle cx="340" cy="110" r="36" fill="#00C9A7"/>
  <circle cx="330" cy="100" r="10" fill="#FFFFFF" opacity="0.5"/>
  <circle cx="660" cy="100" r="32" fill="#9B59B6"/>
  <circle cx="652" cy="91" r="9" fill="#FFFFFF" opacity="0.5"/>
  <circle cx="490" cy="50" r="28" fill="#9B59B6"/>
  <circle cx="483" cy="42" r="8" fill="#FFFFFF" opacity="0.4"/>
  <circle cx="620" cy="55" r="24" fill="#00C9A7"/>
  <circle cx="614" cy="48" r="7" fill="#FFFFFF" opacity="0.4"/>

  <!-- Marbles around mortar sides -->
  <circle cx="290" cy="350" r="30" fill="#FF6B6B"/>
  <circle cx="283" cy="340" r="9" fill="#FFFFFF" opacity="0.4"/>
  <circle cx="730" cy="340" r="32" fill="#4D96FF"/>
  <circle cx="723" cy="329" r="9" fill="#FFFFFF" opacity="0.4"/>
  <circle cx="310" cy="440" r="26" fill="#4D96FF"/>
  <circle cx="304" cy="432" r="7" fill="#FFFFFF" opacity="0.4"/>
  <circle cx="710" cy="430" r="28" fill="#00C9A7"/>
  <circle cx="704" cy="421" r="8" fill="#FFFFFF" opacity="0.4"/>
  <circle cx="400" cy="440" r="22" fill="#9B59B6"/>
  <circle cx="395" cy="433" r="6" fill="#FFFFFF" opacity="0.4"/>
  <circle cx="620" cy="450" r="24" fill="#FF6B6B"/>
  <circle cx="614" cy="442" r="7" fill="#FFFFFF" opacity="0.4"/>
  <circle cx="510" cy="460" r="20" fill="#4D96FF"/>
  <circle cx="505" cy="453" r="6" fill="#FFFFFF" opacity="0.4"/>
</svg>
